<svg xmlns="http://www.w3.org/2000/svg" xmlns:xlink="http://www.w3.org/1999/xlink" contentStyleType="text/css" data-diagram-type="SEQUENCE" height="1802px" preserveAspectRatio="none" style="width:1127px;height:1802px;background:#FFFFFF;" version="1.1" viewBox="0 0 1127 1802" width="1127px" zoomAndPan="magnify"><title>Agent Execution Loop Sequence</title><defs/><g><text fill="#000000" font-family="sans-serif" font-size="14" font-weight="bold" lengthAdjust="spacing" textLength="229.373" x="444.9487" y="28.5352">Agent Execution Loop Sequence</text><g><title>BaseAgent</title><rect fill="#FFFFFF" height="957.3398" style="stroke:#181818;stroke-width:1;" width="10" x="87.417" y="682.8105"/></g><g><title>BaseAgent</title><rect fill="#FFFFFF" height="639.5449" style="stroke:#181818;stroke-width:1;" width="10" x="92.417" y="993.6055"/></g><g><title>LLM</title><rect fill="#FFFFFF" height="156.2422" style="stroke:#181818;stroke-width:1;" width="10" x="481.1519" y="717.1211"/></g><g><title>Tool Executor</title><rect fill="#FFFFFF" height="464.9922" style="stroke:#181818;stroke-width:1;" width="10" x="680.0957" y="1027.916"/></g><rect fill="none" height="1471.5527" style="stroke:#000000;stroke-width:1.5;" width="1035.6504" x="10" y="278.5293"/><rect fill="none" height="75.9316" style="stroke:#000000;stroke-width:1.5;" width="975.6504" x="40" y="345.1504"/><rect fill="none" height="1308" style="stroke:#000000;stroke-width:1.5;" width="1015.6504" x="20" y="435.082"/><rect fill="none" height="686.166" style="stroke:#000000;stroke-width:1.5;" width="995.6504" x="30" y="946.9844"/><rect fill="none" height="392.3711" style="stroke:#000000;stroke-width:1.5;" width="404.5176" x="611.1328" y="1042.916"/><rect fill="none" height="217.8184" style="stroke:#000000;stroke-width:1.5;" width="327.5059" x="621.1328" y="1138.8477"/><rect fill="none" height="118.2422" style="stroke:#000000;stroke-width:1.5;" width="975.6504" x="40" y="1507.9082"/><rect fill="none" height="88.9316" style="stroke:#000000;stroke-width:1.5;" width="975.6504" x="40" y="1647.1504"/><g><title>BaseAgent</title><rect fill="#000000" fill-opacity="0.00000" height="1693.1055" width="8" x="88.417" y="73.9766"/><line style="stroke:#181818;stroke-width:0.5;stroke-dasharray:5,5;" x1="92" x2="92" y1="73.9766" y2="1767.082"/></g><g><title>AgentState</title><rect fill="#000000" fill-opacity="0.00000" height="1693.1055" width="8" x="407.8291" y="73.9766"/><line style="stroke:#181818;stroke-width:0.5;stroke-dasharray:5,5;" x1="411.0005" x2="411.0005" y1="73.9766" y2="1767.082"/></g><g><title>LLM</title><rect fill="#000000" fill-opacity="0.00000" height="1693.1055" width="8" x="482.1519" y="73.9766"/><line style="stroke:#181818;stroke-width:0.5;stroke-dasharray:5,5;" x1="485.6577" x2="485.6577" y1="73.9766" y2="1767.082"/></g><g><title>Tool Executor</title><rect fill="#000000" fill-opacity="0.00000" height="1693.1055" width="8" x="681.0957" y="73.9766"/><line style="stroke:#181818;stroke-width:0.5;stroke-dasharray:5,5;" x1="684.1328" x2="684.1328" y1="73.9766" y2="1767.082"/></g><g><title>Tool Server</title><rect fill="#000000" fill-opacity="0.00000" height="1693.1055" width="8" x="889.4531" y="73.9766"/><line style="stroke:#181818;stroke-width:0.5;stroke-dasharray:5,5;" x1="893.2676" x2="893.2676" y1="73.9766" y2="1767.082"/></g><g><title>Tracer</title><rect fill="#000000" fill-opacity="0.00000" height="1693.1055" width="8" x="973.1445" y="73.9766"/><line style="stroke:#181818;stroke-width:0.5;stroke-dasharray:5,5;" x1="976.6387" x2="976.6387" y1="73.9766" y2="1767.082"/></g><g><title>Agent Graph</title><rect fill="#000000" fill-opacity="0.00000" height="1693.1055" width="8" x="1061.4604" y="73.9766"/><line style="stroke:#181818;stroke-width:0.5;stroke-dasharray:5,5;" x1="1064.6504" x2="1064.6504" y1="73.9766" y2="1767.082"/></g><g class="participant participant-head" data-participant="Agent"><rect fill="#E2E2F0" height="30.4883" rx="2.5" ry="2.5" style="stroke:#181818;stroke-width:0.5;" width="84.834" x="50" y="42.4883"/><text fill="#000000" font-family="sans-serif" font-size="14" lengthAdjust="spacing" textLength="70.834" x="57" y="63.0234">BaseAgent</text></g><g class="participant participant-tail" data-participant="Agent"><rect fill="#E2E2F0" height="30.4883" rx="2.5" ry="2.5" style="stroke:#181818;stroke-width:0.5;" width="84.834" x="50" y="1766.082"/><text fill="#000000" font-family="sans-serif" font-size="14" lengthAdjust="spacing" textLength="70.834" x="57" y="1786.6172">BaseAgent</text></g><g class="participant participant-head" data-participant="State"><rect fill="#E2E2F0" height="30.4883" rx="2.5" ry="2.5" style="stroke:#181818;stroke-width:0.5;" width="87.6572" x="368.0005" y="42.4883"/><text fill="#000000" font-family="sans-serif" font-size="14" lengthAdjust="spacing" textLength="73.6572" x="375.0005" y="63.0234">AgentState</text></g><g class="participant participant-tail" data-participant="State"><rect fill="#E2E2F0" height="30.4883" rx="2.5" ry="2.5" style="stroke:#181818;stroke-width:0.5;" width="87.6572" x="368.0005" y="1766.082"/><text fill="#000000" font-family="sans-serif" font-size="14" lengthAdjust="spacing" textLength="73.6572" x="375.0005" y="1786.6172">AgentState</text></g><g class="participant participant-head" data-participant="LLM"><rect fill="#E2E2F0" height="30.4883" rx="2.5" ry="2.5" style="stroke:#181818;stroke-width:0.5;" width="40.9883" x="465.6577" y="42.4883"/><text fill="#000000" font-family="sans-serif" font-size="14" lengthAdjust="spacing" textLength="26.9883" x="472.6577" y="63.0234">LLM</text></g><g class="participant participant-tail" data-participant="LLM"><rect fill="#E2E2F0" height="30.4883" rx="2.5" ry="2.5" style="stroke:#181818;stroke-width:0.5;" width="40.9883" x="465.6577" y="1766.082"/><text fill="#000000" font-family="sans-serif" font-size="14" lengthAdjust="spacing" textLength="26.9883" x="472.6577" y="1786.6172">LLM</text></g><g class="participant participant-head" data-participant="Executor"><rect fill="#E2E2F0" height="30.4883" rx="2.5" ry="2.5" style="stroke:#181818;stroke-width:0.5;" width="107.9258" x="631.1328" y="42.4883"/><text fill="#000000" font-family="sans-serif" font-size="14" lengthAdjust="spacing" textLength="93.9258" x="638.1328" y="63.0234">Tool Executor</text></g><g class="participant participant-tail" data-participant="Executor"><rect fill="#E2E2F0" height="30.4883" rx="2.5" ry="2.5" style="stroke:#181818;stroke-width:0.5;" width="107.9258" x="631.1328" y="1766.082"/><text fill="#000000" font-family="sans-serif" font-size="14" lengthAdjust="spacing" textLength="93.9258" x="638.1328" y="1786.6172">Tool Executor</text></g><g class="participant participant-head" data-participant="ToolServer"><rect fill="#E2E2F0" height="30.4883" rx="2.5" ry="2.5" style="stroke:#181818;stroke-width:0.5;" width="90.3711" x="848.2676" y="42.4883"/><text fill="#000000" font-family="sans-serif" font-size="14" lengthAdjust="spacing" textLength="76.3711" x="855.2676" y="63.0234">Tool Server</text></g><g class="participant participant-tail" data-participant="ToolServer"><rect fill="#E2E2F0" height="30.4883" rx="2.5" ry="2.5" style="stroke:#181818;stroke-width:0.5;" width="90.3711" x="848.2676" y="1766.082"/><text fill="#000000" font-family="sans-serif" font-size="14" lengthAdjust="spacing" textLength="76.3711" x="855.2676" y="1786.6172">Tool Server</text></g><g class="participant participant-head" data-participant="Tracer"><rect fill="#E2E2F0" height="30.4883" rx="2.5" ry="2.5" style="stroke:#181818;stroke-width:0.5;" width="57.0117" x="948.6387" y="42.4883"/><text fill="#000000" font-family="sans-serif" font-size="14" lengthAdjust="spacing" textLength="43.0117" x="955.6387" y="63.0234">Tracer</text></g><g class="participant participant-tail" data-participant="Tracer"><rect fill="#E2E2F0" height="30.4883" rx="2.5" ry="2.5" style="stroke:#181818;stroke-width:0.5;" width="57.0117" x="948.6387" y="1766.082"/><text fill="#000000" font-family="sans-serif" font-size="14" lengthAdjust="spacing" textLength="43.0117" x="955.6387" y="1786.6172">Tracer</text></g><g class="participant participant-head" data-participant="Graph"><rect fill="#E2E2F0" height="30.4883" rx="2.5" ry="2.5" style="stroke:#181818;stroke-width:0.5;" width="99.6201" x="1015.6504" y="42.4883"/><text fill="#000000" font-family="sans-serif" font-size="14" lengthAdjust="spacing" textLength="85.6201" x="1022.6504" y="63.0234">Agent Graph</text></g><g class="participant participant-tail" data-participant="Graph"><rect fill="#E2E2F0" height="30.4883" rx="2.5" ry="2.5" style="stroke:#181818;stroke-width:0.5;" width="99.6201" x="1015.6504" y="1766.082"/><text fill="#000000" font-family="sans-serif" font-size="14" lengthAdjust="spacing" textLength="85.6201" x="1022.6504" y="1786.6172">Agent Graph</text></g><g><title>BaseAgent</title><rect fill="#FFFFFF" height="957.3398" style="stroke:#181818;stroke-width:1;" width="10" x="87.417" y="682.8105"/></g><g><title>BaseAgent</title><rect fill="#FFFFFF" height="639.5449" style="stroke:#181818;stroke-width:1;" width="10" x="92.417" y="993.6055"/></g><g><title>LLM</title><rect fill="#FFFFFF" height="156.2422" style="stroke:#181818;stroke-width:1;" width="10" x="481.1519" y="717.1211"/></g><g><title>Tool Executor</title><rect fill="#FFFFFF" height="464.9922" style="stroke:#181818;stroke-width:1;" width="10" x="680.0957" y="1027.916"/></g><rect fill="#EEEEEE" height="3" style="stroke:#EEEEEE;stroke-width:1;" width="1120.2705" x="0" y="104.6318"/><line style="stroke:#000000;stroke-width:1;" x1="0" x2="1120.2705" y1="104.6318" y2="104.6318"/><line style="stroke:#000000;stroke-width:1;" x1="0" x2="1120.2705" y1="107.6318" y2="107.6318"/><rect fill="#EEEEEE" height="23.3105" style="stroke:#000000;stroke-width:2;" width="102.6133" x="508.8286" y="93.9766"/><text fill="#000000" font-family="sans-serif" font-size="13" font-weight="bold" lengthAdjust="spacing" textLength="84.3286" x="514.8286" y="110.5449">Initialization</text><g class="message" data-participant-1="Agent" data-participant-2="State"><polygon fill="#181818" points="399.8291,144.5977,409.8291,148.5977,399.8291,152.5977,403.8291,148.5977" style="stroke:#181818;stroke-width:1;"/><line style="stroke:#181818;stroke-width:1;" x1="92.417" x2="405.8291" y1="148.5977" y2="148.5977"/><text fill="#000000" font-family="sans-serif" font-size="13" lengthAdjust="spacing" textLength="126.0898" x="99.417" y="143.8555">Initialize AgentState</text></g><g class="message" data-participant-1="Agent" data-participant-2="Agent"><line style="stroke:#181818;stroke-width:1;" x1="92.417" x2="134.417" y1="177.9082" y2="177.9082"/><line style="stroke:#181818;stroke-width:1;" x1="134.417" x2="134.417" y1="177.9082" y2="190.9082"/><line style="stroke:#181818;stroke-width:1;" x1="93.417" x2="134.417" y1="190.9082" y2="190.9082"/><polygon fill="#181818" points="103.417,186.9082,93.417,190.9082,103.417,194.9082,99.417,190.9082" style="stroke:#181818;stroke-width:1;"/><text fill="#000000" font-family="sans-serif" font-size="13" lengthAdjust="spacing" textLength="222.7139" x="99.417" y="173.166">_initialize_sandbox_and_state(task)</text></g><g class="message" data-participant-1="Agent" data-participant-2="State"><polygon fill="#181818" points="399.8291,216.2188,409.8291,220.2188,399.8291,224.2188,403.8291,220.2188" style="stroke:#181818;stroke-width:1;"/><line style="stroke:#181818;stroke-width:1;" x1="92.417" x2="405.8291" y1="220.2188" y2="220.2188"/><text fill="#000000" font-family="sans-serif" font-size="13" lengthAdjust="spacing" textLength="165.1216" x="99.417" y="215.4766">add_message("user", task)</text></g><rect fill="#EEEEEE" height="3" style="stroke:#EEEEEE;stroke-width:1;" width="1120.2705" x="0" y="248.874"/><line style="stroke:#000000;stroke-width:1;" x1="0" x2="1120.2705" y1="248.874" y2="248.874"/><line style="stroke:#000000;stroke-width:1;" x1="0" x2="1120.2705" y1="251.874" y2="251.874"/><rect fill="#EEEEEE" height="23.3105" style="stroke:#000000;stroke-width:2;" width="87.5566" x="516.3569" y="238.2188"/><text fill="#000000" font-family="sans-serif" font-size="13" font-weight="bold" lengthAdjust="spacing" textLength="69.272" x="522.3569" y="254.7871">Main Loop</text><path d="M10,278.5293 L84.4468,278.5293 L84.4468,285.8398 L74.4468,295.8398 L10,295.8398 L10,278.5293" fill="#EEEEEE" style="stroke:#000000;stroke-width:1.5;"/><rect fill="none" height="1471.5527" style="stroke:#000000;stroke-width:1.5;" width="1035.6504" x="10" y="278.5293"/><text fill="#000000" font-family="sans-serif" font-size="13" font-weight="bold" lengthAdjust="spacing" textLength="29.4468" x="25" y="292.0977">loop</text><text fill="#000000" font-family="sans-serif" font-size="11" font-weight="bold" lengthAdjust="spacing" textLength="110.8916" x="99.4468" y="291.1641">[While not stopped]</text><g class="message" data-participant-1="Agent" data-participant-2="Agent"><line style="stroke:#181818;stroke-width:1;" x1="92.417" x2="134.417" y1="317.1504" y2="317.1504"/><line style="stroke:#181818;stroke-width:1;" x1="134.417" x2="134.417" y1="317.1504" y2="330.1504"/><line style="stroke:#181818;stroke-width:1;" x1="93.417" x2="134.417" y1="330.1504" y2="330.1504"/><polygon fill="#181818" points="103.417,326.1504,93.417,330.1504,103.417,334.1504,99.417,330.1504" style="stroke:#181818;stroke-width:1;"/><text fill="#000000" font-family="sans-serif" font-size="13" lengthAdjust="spacing" textLength="161.4272" x="99.417" y="312.4082">_check_agent_messages()</text></g><path d="M40,345.1504 L102.1387,345.1504 L102.1387,352.4609 L92.1387,362.4609 L40,362.4609 L40,345.1504" fill="#EEEEEE" style="stroke:#000000;stroke-width:1.5;"/><rect fill="none" height="75.9316" style="stroke:#000000;stroke-width:1.5;" width="975.6504" x="40" y="345.1504"/><text fill="#000000" font-family="sans-serif" font-size="13" font-weight="bold" lengthAdjust="spacing" textLength="17.1387" x="55" y="358.7188">alt</text><text fill="#000000" font-family="sans-serif" font-size="11" font-weight="bold" lengthAdjust="spacing" textLength="115.7739" x="117.1387" y="357.7852">[Has new messages]</text><g class="message" data-participant-1="Agent" data-participant-2="State"><polygon fill="#181818" points="399.8291,379.7715,409.8291,383.7715,399.8291,387.7715,403.8291,383.7715" style="stroke:#181818;stroke-width:1;"/><line style="stroke:#181818;stroke-width:1;" x1="92.417" x2="405.8291" y1="383.7715" y2="383.7715"/><text fill="#000000" font-family="sans-serif" font-size="13" lengthAdjust="spacing" textLength="239.2305" x="99.417" y="379.0293">add_message() from other agent/user</text></g><g class="message" data-participant-1="Agent" data-participant-2="Tracer"><polygon fill="#181818" points="965.1445,409.082,975.1445,413.082,965.1445,417.082,969.1445,413.082" style="stroke:#181818;stroke-width:1;"/><line style="stroke:#181818;stroke-width:1;" x1="92.417" x2="971.1445" y1="413.082" y2="413.082"/><text fill="#000000" font-family="sans-serif" font-size="13" lengthAdjust="spacing" textLength="198.0215" x="99.417" y="408.3398">update_agent_status("running")</text></g><path d="M20,435.082 L82.1387,435.082 L82.1387,442.3926 L72.1387,452.3926 L20,452.3926 L20,435.082" fill="#EEEEEE" style="stroke:#000000;stroke-width:1.5;"/><rect fill="none" height="1308" style="stroke:#000000;stroke-width:1.5;" width="1015.6504" x="20" y="435.082"/><text fill="#000000" font-family="sans-serif" font-size="13" font-weight="bold" lengthAdjust="spacing" textLength="17.1387" x="35" y="448.6504">alt</text><text fill="#000000" font-family="sans-serif" font-size="11" font-weight="bold" lengthAdjust="spacing" textLength="117.3047" x="97.1387" y="447.7168">[Is waiting for input]</text><g class="message" data-participant-1="Agent" data-participant-2="Agent"><line style="stroke:#181818;stroke-width:1;" x1="92.417" x2="134.417" y1="473.7031" y2="473.7031"/><line style="stroke:#181818;stroke-width:1;" x1="134.417" x2="134.417" y1="473.7031" y2="486.7031"/><line style="stroke:#181818;stroke-width:1;" x1="93.417" x2="134.417" y1="486.7031" y2="486.7031"/><polygon fill="#181818" points="103.417,482.7031,93.417,486.7031,103.417,490.7031,99.417,486.7031" style="stroke:#181818;stroke-width:1;"/><text fill="#000000" font-family="sans-serif" font-size="13" lengthAdjust="spacing" textLength="104.7935" x="99.417" y="468.9609">_wait_for_input()</text></g><path d="M215.7935,460.8926 L215.7935,485.8926 L368.7935,485.8926 L368.7935,470.8926 L358.7935,460.8926 L215.7935,460.8926" fill="#FEFFDD" style="stroke:#181818;stroke-width:0.5;"/><path d="M358.7935,460.8926 L358.7935,470.8926 L368.7935,470.8926 L358.7935,460.8926" fill="#FEFFDD" style="stroke:#181818;stroke-width:0.5;"/><text fill="#000000" font-family="sans-serif" font-size="13" lengthAdjust="spacing" textLength="132.9072" x="221.7935" y="478.4609">Skip to next iteration</text><line style="stroke:#000000;stroke-width:1;stroke-dasharray:2,2;" x1="20" x2="1035.6504" y1="495.7031" y2="495.7031"/><text fill="#000000" font-family="sans-serif" font-size="11" font-weight="bold" lengthAdjust="spacing" textLength="75.394" x="25" y="506.3379">[Should stop]</text><g class="message" data-participant-1="Agent" data-participant-2="Agent"><line style="stroke:#181818;stroke-width:1;" x1="92.417" x2="134.417" y1="530.9688" y2="530.9688"/><line style="stroke:#181818;stroke-width:1;" x1="134.417" x2="134.417" y1="530.9688" y2="543.9688"/><line style="stroke:#181818;stroke-width:1;" x1="93.417" x2="134.417" y1="543.9688" y2="543.9688"/><polygon fill="#181818" points="103.417,539.9688,93.417,543.9688,103.417,547.9688,99.417,543.9688" style="stroke:#181818;stroke-width:1;"/><text fill="#000000" font-family="sans-serif" font-size="13" lengthAdjust="spacing" textLength="137.2109" x="99.417" y="526.2266">_enter_waiting_state()</text></g><path d="M248.2109,518.1582 L248.2109,543.1582 L401.2109,543.1582 L401.2109,528.1582 L391.2109,518.1582 L248.2109,518.1582" fill="#FEFFDD" style="stroke:#181818;stroke-width:0.5;"/><path d="M391.2109,518.1582 L391.2109,528.1582 L401.2109,528.1582 L391.2109,518.1582" fill="#FEFFDD" style="stroke:#181818;stroke-width:0.5;"/><text fill="#000000" font-family="sans-serif" font-size="13" lengthAdjust="spacing" textLength="132.9072" x="254.2109" y="535.7266">Skip to next iteration</text><line style="stroke:#000000;stroke-width:1;stroke-dasharray:2,2;" x1="20" x2="1035.6504" y1="552.9688" y2="552.9688"/><text fill="#000000" font-family="sans-serif" font-size="11" font-weight="bold" lengthAdjust="spacing" textLength="66.4727" x="25" y="563.6035">[LLM failed]</text><g class="message" data-participant-1="Agent" data-participant-2="Agent"><line style="stroke:#181818;stroke-width:1;" x1="92.417" x2="134.417" y1="588.2344" y2="588.2344"/><line style="stroke:#181818;stroke-width:1;" x1="134.417" x2="134.417" y1="588.2344" y2="601.2344"/><line style="stroke:#181818;stroke-width:1;" x1="93.417" x2="134.417" y1="601.2344" y2="601.2344"/><polygon fill="#181818" points="103.417,597.2344,93.417,601.2344,103.417,605.2344,99.417,601.2344" style="stroke:#181818;stroke-width:1;"/><text fill="#000000" font-family="sans-serif" font-size="13" lengthAdjust="spacing" textLength="104.7935" x="99.417" y="583.4922">_wait_for_input()</text></g><path d="M215.7935,575.4238 L215.7935,600.4238 L368.7935,600.4238 L368.7935,585.4238 L358.7935,575.4238 L215.7935,575.4238" fill="#FEFFDD" style="stroke:#181818;stroke-width:0.5;"/><path d="M358.7935,575.4238 L358.7935,585.4238 L368.7935,585.4238 L358.7935,575.4238" fill="#FEFFDD" style="stroke:#181818;stroke-width:0.5;"/><text fill="#000000" font-family="sans-serif" font-size="13" lengthAdjust="spacing" textLength="132.9072" x="221.7935" y="592.9922">Skip to next iteration</text><line style="stroke:#000000;stroke-width:1;stroke-dasharray:2,2;" x1="20" x2="1035.6504" y1="610.2344" y2="610.2344"/><text fill="#000000" font-family="sans-serif" font-size="11" font-weight="bold" lengthAdjust="spacing" textLength="103.5225" x="25" y="620.8691">[Process iteration]</text><g class="message" data-participant-1="Agent" data-participant-2="State"><polygon fill="#181818" points="399.8291,641.5,409.8291,645.5,399.8291,649.5,403.8291,645.5" style="stroke:#181818;stroke-width:1;"/><line style="stroke:#181818;stroke-width:1;" x1="92.417" x2="405.8291" y1="645.5" y2="645.5"/><text fill="#000000" font-family="sans-serif" font-size="13" lengthAdjust="spacing" textLength="131.3457" x="99.417" y="640.7578">increment_iteration()</text></g><g class="message" data-participant-1="Agent" data-participant-2="Agent"><line style="stroke:#181818;stroke-width:1;" x1="92.417" x2="139.417" y1="669.8105" y2="669.8105"/><line style="stroke:#181818;stroke-width:1;" x1="139.417" x2="139.417" y1="669.8105" y2="682.8105"/><line style="stroke:#181818;stroke-width:1;" x1="98.417" x2="139.417" y1="682.8105" y2="682.8105"/><polygon fill="#181818" points="108.417,678.8105,98.417,682.8105,108.417,686.8105,104.417,682.8105" style="stroke:#181818;stroke-width:1;"/><text fill="#000000" font-family="sans-serif" font-size="13" lengthAdjust="spacing" textLength="123.1318" x="104.417" y="665.0684">_process_iteration()</text></g><g class="message" data-participant-1="Agent" data-participant-2="LLM"><polygon fill="#181818" points="469.1519,713.1211,479.1519,717.1211,469.1519,721.1211,473.1519,717.1211" style="stroke:#181818;stroke-width:1;"/><line style="stroke:#181818;stroke-width:1;" x1="97.417" x2="475.1519" y1="717.1211" y2="717.1211"/><text fill="#000000" font-family="sans-serif" font-size="13" lengthAdjust="spacing" textLength="194.1113" x="104.417" y="712.3789">generate(conversation_history)</text></g><g class="message" data-participant-1="LLM" data-participant-2="LLM"><line style="stroke:#181818;stroke-width:1;" x1="491.1519" x2="533.1519" y1="746.4316" y2="746.4316"/><line style="stroke:#181818;stroke-width:1;" x1="533.1519" x2="533.1519" y1="746.4316" y2="759.4316"/><line style="stroke:#181818;stroke-width:1;" x1="492.1519" x2="533.1519" y1="759.4316" y2="759.4316"/><polygon fill="#181818" points="502.1519,755.4316,492.1519,759.4316,502.1519,763.4316,498.1519,759.4316" style="stroke:#181818;stroke-width:1;"/><text fill="#000000" font-family="sans-serif" font-size="13" lengthAdjust="spacing" textLength="118.8408" x="498.1519" y="741.6895">Compress memory</text></g><g class="message" data-participant-1="LLM" data-participant-2="LLM"><line style="stroke:#181818;stroke-width:1;" x1="491.1519" x2="533.1519" y1="788.7422" y2="788.7422"/><line style="stroke:#181818;stroke-width:1;" x1="533.1519" x2="533.1519" y1="788.7422" y2="801.7422"/><line style="stroke:#181818;stroke-width:1;" x1="492.1519" x2="533.1519" y1="801.7422" y2="801.7422"/><polygon fill="#181818" points="502.1519,797.7422,492.1519,801.7422,502.1519,805.7422,498.1519,801.7422" style="stroke:#181818;stroke-width:1;"/><text fill="#000000" font-family="sans-serif" font-size="13" lengthAdjust="spacing" textLength="161.6748" x="498.1519" y="784">Prepare cached messages</text></g><g class="message" data-participant-1="LLM" data-participant-2="LLM"><line style="stroke:#181818;stroke-width:1;" x1="491.1519" x2="533.1519" y1="831.0527" y2="831.0527"/><line style="stroke:#181818;stroke-width:1;" x1="533.1519" x2="533.1519" y1="831.0527" y2="844.0527"/><line style="stroke:#181818;stroke-width:1;" x1="492.1519" x2="533.1519" y1="844.0527" y2="844.0527"/><polygon fill="#181818" points="502.1519,840.0527,492.1519,844.0527,502.1519,848.0527,498.1519,844.0527" style="stroke:#181818;stroke-width:1;"/><text fill="#000000" font-family="sans-serif" font-size="13" lengthAdjust="spacing" textLength="164.9438" x="498.1519" y="826.3105">_make_request(messages)</text></g><g class="message" data-participant-1="LLM" data-participant-2="Agent"><polygon fill="#181818" points="108.417,869.3633,98.417,873.3633,108.417,877.3633,104.417,873.3633" style="stroke:#181818;stroke-width:1;"/><line style="stroke:#181818;stroke-width:1;stroke-dasharray:2,2;" x1="102.417" x2="485.1519" y1="873.3633" y2="873.3633"/><text fill="#000000" font-family="sans-serif" font-size="13" lengthAdjust="spacing" textLength="252.4526" x="114.417" y="868.6211">LLMResponse(content, tool_invocations)</text></g><g class="message" data-participant-1="Agent" data-participant-2="State"><polygon fill="#181818" points="399.8291,898.6738,409.8291,902.6738,399.8291,906.6738,403.8291,902.6738" style="stroke:#181818;stroke-width:1;"/><line style="stroke:#181818;stroke-width:1;" x1="97.417" x2="405.8291" y1="902.6738" y2="902.6738"/><text fill="#000000" font-family="sans-serif" font-size="13" lengthAdjust="spacing" textLength="215.1348" x="104.417" y="897.9316">add_message("assistant", content)</text></g><g class="message" data-participant-1="Agent" data-participant-2="Tracer"><polygon fill="#181818" points="965.1445,927.9844,975.1445,931.9844,965.1445,935.9844,969.1445,931.9844" style="stroke:#181818;stroke-width:1;"/><line style="stroke:#181818;stroke-width:1;" x1="97.417" x2="971.1445" y1="931.9844" y2="931.9844"/><text fill="#000000" font-family="sans-serif" font-size="13" lengthAdjust="spacing" textLength="123.2334" x="104.417" y="927.2422">log_chat_message()</text></g><path d="M30,946.9844 L92.1387,946.9844 L92.1387,954.2949 L82.1387,964.2949 L30,964.2949 L30,946.9844" fill="#EEEEEE" style="stroke:#000000;stroke-width:1.5;"/><rect fill="none" height="686.166" style="stroke:#000000;stroke-width:1.5;" width="995.6504" x="30" y="946.9844"/><text fill="#000000" font-family="sans-serif" font-size="13" font-weight="bold" lengthAdjust="spacing" textLength="17.1387" x="45" y="960.5527">alt</text><text fill="#000000" font-family="sans-serif" font-size="11" font-weight="bold" lengthAdjust="spacing" textLength="123.938" x="107.1387" y="959.6191">[Has tool invocations]</text><g class="message" data-participant-1="Agent" data-participant-2="Agent"><line style="stroke:#181818;stroke-width:1;" x1="97.417" x2="144.417" y1="980.6055" y2="980.6055"/><line style="stroke:#181818;stroke-width:1;" x1="144.417" x2="144.417" y1="980.6055" y2="993.6055"/><line style="stroke:#181818;stroke-width:1;" x1="103.417" x2="144.417" y1="993.6055" y2="993.6055"/><polygon fill="#181818" points="113.417,989.6055,103.417,993.6055,113.417,997.6055,109.417,993.6055" style="stroke:#181818;stroke-width:1;"/><text fill="#000000" font-family="sans-serif" font-size="13" lengthAdjust="spacing" textLength="161.021" x="109.417" y="975.8633">_execute_actions(actions)</text></g><g class="message" data-participant-1="Agent" data-participant-2="Executor"><polygon fill="#181818" points="668.0957,1023.916,678.0957,1027.916,668.0957,1031.916,672.0957,1027.916" style="stroke:#181818;stroke-width:1;"/><line style="stroke:#181818;stroke-width:1;" x1="102.417" x2="674.0957" y1="1027.916" y2="1027.916"/><text fill="#000000" font-family="sans-serif" font-size="13" lengthAdjust="spacing" textLength="250.5039" x="109.417" y="1023.1738">process_tool_invocations(actions, state)</text></g><path d="M611.1328,1042.916 L685.5796,1042.916 L685.5796,1050.2266 L675.5796,1060.2266 L611.1328,1060.2266 L611.1328,1042.916" fill="#EEEEEE" style="stroke:#000000;stroke-width:1.5;"/><rect fill="none" height="392.3711" style="stroke:#000000;stroke-width:1.5;" width="404.5176" x="611.1328" y="1042.916"/><text fill="#000000" font-family="sans-serif" font-size="13" font-weight="bold" lengthAdjust="spacing" textLength="29.4468" x="626.1328" y="1056.4844">loop</text><text fill="#000000" font-family="sans-serif" font-size="11" font-weight="bold" lengthAdjust="spacing" textLength="144.4072" x="700.5796" y="1055.5508">[For each tool invocation]</text><g class="message" data-participant-1="Executor" data-participant-2="Executor"><line style="stroke:#181818;stroke-width:1;" x1="690.0957" x2="732.0957" y1="1081.5371" y2="1081.5371"/><line style="stroke:#181818;stroke-width:1;" x1="732.0957" x2="732.0957" y1="1081.5371" y2="1094.5371"/><line style="stroke:#181818;stroke-width:1;" x1="691.0957" x2="732.0957" y1="1094.5371" y2="1094.5371"/><polygon fill="#181818" points="701.0957,1090.5371,691.0957,1094.5371,701.0957,1098.5371,697.0957,1094.5371" style="stroke:#181818;stroke-width:1;"/><text fill="#000000" font-family="sans-serif" font-size="13" lengthAdjust="spacing" textLength="160.3862" x="697.0957" y="1076.7949">execute_tool_invocation()</text></g><g class="message" data-participant-1="Executor" data-participant-2="Tracer"><polygon fill="#181818" points="965.1445,1119.8477,975.1445,1123.8477,965.1445,1127.8477,969.1445,1123.8477" style="stroke:#181818;stroke-width:1;"/><line style="stroke:#181818;stroke-width:1;" x1="690.0957" x2="971.1445" y1="1123.8477" y2="1123.8477"/><text fill="#000000" font-family="sans-serif" font-size="13" lengthAdjust="spacing" textLength="163.103" x="697.0957" y="1119.1055">log_tool_execution_start()</text></g><path d="M621.1328,1138.8477 L683.2715,1138.8477 L683.2715,1146.1582 L673.2715,1156.1582 L621.1328,1156.1582 L621.1328,1138.8477" fill="#EEEEEE" style="stroke:#000000;stroke-width:1.5;"/><rect fill="none" height="217.8184" style="stroke:#000000;stroke-width:1.5;" width="327.5059" x="621.1328" y="1138.8477"/><text fill="#000000" font-family="sans-serif" font-size="13" font-weight="bold" lengthAdjust="spacing" textLength="17.1387" x="636.1328" y="1152.416">alt</text><text fill="#000000" font-family="sans-serif" font-size="11" font-weight="bold" lengthAdjust="spacing" textLength="152.6519" x="698.2715" y="1151.4824">[Tool executes in sandbox]</text><g class="message" data-participant-1="Executor" data-participant-2="Executor"><line style="stroke:#181818;stroke-width:1;" x1="690.0957" x2="732.0957" y1="1177.4688" y2="1177.4688"/><line style="stroke:#181818;stroke-width:1;" x1="732.0957" x2="732.0957" y1="1177.4688" y2="1190.4688"/><line style="stroke:#181818;stroke-width:1;" x1="691.0957" x2="732.0957" y1="1190.4688" y2="1190.4688"/><polygon fill="#181818" points="701.0957,1186.4688,691.0957,1190.4688,701.0957,1194.4688,697.0957,1190.4688" style="stroke:#181818;stroke-width:1;"/><text fill="#000000" font-family="sans-serif" font-size="13" lengthAdjust="spacing" textLength="174.3574" x="697.0957" y="1172.7266">_execute_tool_in_sandbox()</text></g><g class="message" data-participant-1="Executor" data-participant-2="ToolServer"><polygon fill="#181818" points="881.4531,1215.7793,891.4531,1219.7793,881.4531,1223.7793,885.4531,1219.7793" style="stroke:#181818;stroke-width:1;"/><line style="stroke:#181818;stroke-width:1;" x1="690.0957" x2="887.4531" y1="1219.7793" y2="1219.7793"/><text fill="#000000" font-family="sans-serif" font-size="13" lengthAdjust="spacing" textLength="92.7266" x="697.0957" y="1215.0371">POST /execute</text></g><g class="message" data-participant-1="ToolServer" data-participant-2="Executor"><polygon fill="#181818" points="701.0957,1245.0898,691.0957,1249.0898,701.0957,1253.0898,697.0957,1249.0898" style="stroke:#181818;stroke-width:1;"/><line style="stroke:#181818;stroke-width:1;stroke-dasharray:2,2;" x1="695.0957" x2="892.4531" y1="1249.0898" y2="1249.0898"/><text fill="#000000" font-family="sans-serif" font-size="13" lengthAdjust="spacing" textLength="35.877" x="707.0957" y="1244.3477">result</text></g><line style="stroke:#000000;stroke-width:1;stroke-dasharray:2,2;" x1="621.1328" x2="948.6387" y1="1258.0898" y2="1258.0898"/><text fill="#000000" font-family="sans-serif" font-size="11" font-weight="bold" lengthAdjust="spacing" textLength="126.7041" x="626.1328" y="1268.7246">[Tool executes locally]</text><g class="message" data-participant-1="Executor" data-participant-2="Executor"><line style="stroke:#181818;stroke-width:1;" x1="690.0957" x2="732.0957" y1="1293.3555" y2="1293.3555"/><line style="stroke:#181818;stroke-width:1;" x1="732.0957" x2="732.0957" y1="1293.3555" y2="1306.3555"/><line style="stroke:#181818;stroke-width:1;" x1="691.0957" x2="732.0957" y1="1306.3555" y2="1306.3555"/><polygon fill="#181818" points="701.0957,1302.3555,691.0957,1306.3555,701.0957,1310.3555,697.0957,1306.3555" style="stroke:#181818;stroke-width:1;"/><text fill="#000000" font-family="sans-serif" font-size="13" lengthAdjust="spacing" textLength="141.7241" x="697.0957" y="1288.6133">_execute_tool_locally()</text></g><g class="message" data-participant-1="Executor" data-participant-2="Executor"><line style="stroke:#181818;stroke-width:1;stroke-dasharray:2,2;" x1="690.0957" x2="732.0957" y1="1335.666" y2="1335.666"/><line style="stroke:#181818;stroke-width:1;stroke-dasharray:2,2;" x1="732.0957" x2="732.0957" y1="1335.666" y2="1348.666"/><line style="stroke:#181818;stroke-width:1;stroke-dasharray:2,2;" x1="691.0957" x2="732.0957" y1="1348.666" y2="1348.666"/><polygon fill="#181818" points="701.0957,1344.666,691.0957,1348.666,701.0957,1352.666,697.0957,1348.666" style="stroke:#181818;stroke-width:1;"/><text fill="#000000" font-family="sans-serif" font-size="13" lengthAdjust="spacing" textLength="35.877" x="697.0957" y="1330.9238">result</text></g><g class="message" data-participant-1="Executor" data-participant-2="Tracer"><polygon fill="#181818" points="965.1445,1380.9766,975.1445,1384.9766,965.1445,1388.9766,969.1445,1384.9766" style="stroke:#181818;stroke-width:1;"/><line style="stroke:#181818;stroke-width:1;" x1="690.0957" x2="971.1445" y1="1384.9766" y2="1384.9766"/><text fill="#000000" font-family="sans-serif" font-size="13" lengthAdjust="spacing" textLength="151.6201" x="697.0957" y="1380.2344">update_tool_execution()</text></g><g class="message" data-participant-1="Executor" data-participant-2="Executor"><line style="stroke:#181818;stroke-width:1;" x1="690.0957" x2="732.0957" y1="1414.2871" y2="1414.2871"/><line style="stroke:#181818;stroke-width:1;" x1="732.0957" x2="732.0957" y1="1414.2871" y2="1427.2871"/><line style="stroke:#181818;stroke-width:1;" x1="691.0957" x2="732.0957" y1="1427.2871" y2="1427.2871"/><polygon fill="#181818" points="701.0957,1423.2871,691.0957,1427.2871,701.0957,1431.2871,697.0957,1427.2871" style="stroke:#181818;stroke-width:1;"/><text fill="#000000" font-family="sans-serif" font-size="13" lengthAdjust="spacing" textLength="130.6855" x="697.0957" y="1409.5449">_format_tool_result()</text></g><g class="message" data-participant-1="Executor" data-participant-2="State"><polygon fill="#181818" points="422.8291,1459.5977,412.8291,1463.5977,422.8291,1467.5977,418.8291,1463.5977" style="stroke:#181818;stroke-width:1;"/><line style="stroke:#181818;stroke-width:1;" x1="416.8291" x2="679.0957" y1="1463.5977" y2="1463.5977"/><text fill="#000000" font-family="sans-serif" font-size="13" lengthAdjust="spacing" textLength="212.4497" x="428.8291" y="1458.8555">add_message("user", tool_results)</text></g><g class="message" data-participant-1="Executor" data-participant-2="Agent"><polygon fill="#181818" points="113.417,1488.9082,103.417,1492.9082,113.417,1496.9082,109.417,1492.9082" style="stroke:#181818;stroke-width:1;"/><line style="stroke:#181818;stroke-width:1;stroke-dasharray:2,2;" x1="107.417" x2="684.0957" y1="1492.9082" y2="1492.9082"/><text fill="#000000" font-family="sans-serif" font-size="13" lengthAdjust="spacing" textLength="126.2041" x="119.417" y="1488.166">should_agent_finish</text></g><path d="M40,1507.9082 L102.1387,1507.9082 L102.1387,1515.2188 L92.1387,1525.2188 L40,1525.2188 L40,1507.9082" fill="#EEEEEE" style="stroke:#000000;stroke-width:1.5;"/><rect fill="none" height="118.2422" style="stroke:#000000;stroke-width:1.5;" width="975.6504" x="40" y="1507.9082"/><text fill="#000000" font-family="sans-serif" font-size="13" font-weight="bold" lengthAdjust="spacing" textLength="17.1387" x="55" y="1521.4766">alt</text><text fill="#000000" font-family="sans-serif" font-size="11" font-weight="bold" lengthAdjust="spacing" textLength="82.7847" x="117.1387" y="1520.543">[Should finish]</text><g class="message" data-participant-1="Agent" data-participant-2="State"><polygon fill="#181818" points="399.8291,1542.5293,409.8291,1546.5293,399.8291,1550.5293,403.8291,1546.5293" style="stroke:#181818;stroke-width:1;"/><line style="stroke:#181818;stroke-width:1;" x1="102.417" x2="405.8291" y1="1546.5293" y2="1546.5293"/><text fill="#000000" font-family="sans-serif" font-size="13" lengthAdjust="spacing" textLength="99.9375" x="109.417" y="1541.7871">set_completed()</text></g><g class="message" data-participant-1="Agent" data-participant-2="Tracer"><polygon fill="#181818" points="965.1445,1571.8398,975.1445,1575.8398,965.1445,1579.8398,969.1445,1575.8398" style="stroke:#181818;stroke-width:1;"/><line style="stroke:#181818;stroke-width:1;" x1="102.417" x2="971.1445" y1="1575.8398" y2="1575.8398"/><text fill="#000000" font-family="sans-serif" font-size="13" lengthAdjust="spacing" textLength="214.8174" x="109.417" y="1571.0977">update_agent_status("completed")</text></g><g class="message" data-participant-1="Agent" data-participant-2="Agent"><line style="stroke:#181818;stroke-width:1;" x1="102.417" x2="144.417" y1="1605.1504" y2="1605.1504"/><line style="stroke:#181818;stroke-width:1;" x1="144.417" x2="144.417" y1="1605.1504" y2="1618.1504"/><line style="stroke:#181818;stroke-width:1;" x1="103.417" x2="144.417" y1="1618.1504" y2="1618.1504"/><polygon fill="#181818" points="113.417,1614.1504,103.417,1618.1504,113.417,1622.1504,109.417,1618.1504" style="stroke:#181818;stroke-width:1;"/><text fill="#000000" font-family="sans-serif" font-size="13" lengthAdjust="spacing" textLength="275.4121" x="109.417" y="1600.4082">_enter_waiting_state(task_completed=True)</text></g><path d="M40,1647.1504 L102.1387,1647.1504 L102.1387,1654.4609 L92.1387,1664.4609 L40,1664.4609 L40,1647.1504" fill="#EEEEEE" style="stroke:#000000;stroke-width:1.5;"/><rect fill="none" height="88.9316" style="stroke:#000000;stroke-width:1.5;" width="975.6504" x="40" y="1647.1504"/><text fill="#000000" font-family="sans-serif" font-size="13" font-weight="bold" lengthAdjust="spacing" textLength="17.1387" x="55" y="1660.7188">alt</text><text fill="#000000" font-family="sans-serif" font-size="11" font-weight="bold" lengthAdjust="spacing" textLength="90.1055" x="117.1387" y="1659.7852">[Error occurred]</text><g class="message" data-participant-1="Agent" data-participant-2="Agent"><line style="stroke:#181818;stroke-width:1;" x1="92.417" x2="134.417" y1="1685.7715" y2="1685.7715"/><line style="stroke:#181818;stroke-width:1;" x1="134.417" x2="134.417" y1="1685.7715" y2="1698.7715"/><line style="stroke:#181818;stroke-width:1;" x1="93.417" x2="134.417" y1="1698.7715" y2="1698.7715"/><polygon fill="#181818" points="103.417,1694.7715,93.417,1698.7715,103.417,1702.7715,99.417,1698.7715" style="stroke:#181818;stroke-width:1;"/><text fill="#000000" font-family="sans-serif" font-size="13" lengthAdjust="spacing" textLength="154.6733" x="99.417" y="1681.0293">_handle_iteration_error()</text></g><g class="message" data-participant-1="Agent" data-participant-2="Tracer"><polygon fill="#181818" points="965.1445,1724.082,975.1445,1728.082,965.1445,1732.082,969.1445,1728.082" style="stroke:#181818;stroke-width:1;"/><line style="stroke:#181818;stroke-width:1;" x1="92.417" x2="971.1445" y1="1728.082" y2="1728.082"/><text fill="#000000" font-family="sans-serif" font-size="13" lengthAdjust="spacing" textLength="179.7529" x="99.417" y="1723.3398">update_agent_status("error")</text></g><!--SRC=[jLRRRjim37ttLn1vSe0EVG-G0TkmIu4MAvO2UpGqcOc5s98doRtiwqV9KdnFkW8paDYo3ib3qYHbXIqHFXnGMlZyZBonGacuLQg67VvkK79CafffAxYe6O5M7vb1Zry1Cwta4E1VxIopw17-QOYulRtpMtGVRZmeLGOQIdj8NCpWTgWViKMvTRiSuJJZ4U8VPvZ2LytgmcFyKv9ijt0ZXHMi57-OZyTscoGj-Dtxrg5D1mdXQ_qyeVp31Z9nWcM6oVoNUixebXc7JYqpn_L4Cylph49Zs07JLMF8WIjeaOxQ7HCXGOvLwHv-5eAIA9K5OrLTOvu0NHCgl41-p9XRHVqcNNki_sEbXMyK1ebF4FVzna3R3CarxBMgGDa2DNZzruxsLBPDmWQQEYSbWOeBHMFIbMwa5FAmQXcXp8VCRWmyCOgbFC1UQH2oRkpKGlJLGJF2PHuNl7GNHGb1YqD1gDrHr60LEVniGLZKFjkj-T8Wx0hLbBaFwh8b-aUT1MeXhsypH-K0UqQfpF-pN_TQSKhTQ6ikoq9oZPNBqWdRixbCisujp4enRiKZQG-zOraPnMC3j70gCELAKdqRhoqh12L5lymeTJrbej95DYhyfAfQE-yhh4Z5BEPU8pKA1CwePl9fCVInMSMEc6dNB8rD8tIzGAAB4Ir_eAcLDDutIo-fpAcHKMeV5VT-zjJaUDx5iqs46KC1evv7dIJOMYzNPwaEr2kOxUfxQYxs2aSOUeHFWFbQyTsS2fzxS1hkwu7KmlSnC3_G7cV41k9dDmvZD7G5lZuNx9rcpQ99tss_KFUXP1HZtmT8TqLzGuun1YEEwVgiV3ytNXBZi7OjHziPySaBbpC_EGC5QW0Imb2QW9STo4OUnBasGs7YnMbEKurztpt0TT0rAzcXVTrq3AXycz9EP7nl6pfOKdJBykNDtWNvYwwzYfxCB-TeBkTXMWxJVk5xwJb4qwAYOlRYBRMHx9XOigJqtFcaqpugvq6GGYCmVh26-R-d8v8f1ZAzPdUvADrd7IRrZAgvtcZGPfp6G8aMyvb0lkwySjAmEgFXt2d1dUaw7ji7tU0_9AONes6Zx4ib5z63ZlvPQqgKuhpH6lFplRoWgY-nc_0PEk5HD5yNII_PYsBqmDtTxoy0]--></g></svg>